<?xml version="1.0" encoding="utf-8"?>

<!DOCTYPE svg PUBLIC "-//W3C//DTD SVG 1.0//EN" "http://www.w3.org/TR/2001/REC-SVG-20010904/DTD/svg10.dtd">
<!-- Uploaded to: SVG Repo, www.svgrepo.com, Generator: SVG Repo Mixer Tools -->
<svg version="1.0" id="Layer_1" xmlns="http://www.w3.org/2000/svg" xmlns:xlink="http://www.w3.org/1999/xlink" 
	 width="800px" height="800px" viewBox="0 0 64 64" enable-background="new 0 0 64 64" xml:space="preserve">
<path fill="#231F20" d="M56,0H8C5.789,0,4,1.789,4,4v56c0,2.211,1.789,4,4,4h48c2.211,0,4-1.789,4-4V4C60,1.789,58.211,0,56,0z
	 M15,13h16c0.553,0,1,0.447,1,1s-0.447,1-1,1H15c-0.553,0-1-0.447-1-1S14.447,13,15,13z M49,51H15c-0.553,0-1-0.447-1-1s0.447-1,1-1
	h34c0.553,0,1,0.447,1,1S49.553,51,49,51z M49,45H15c-0.553,0-1-0.447-1-1s0.447-1,1-1h34c0.553,0,1,0.447,1,1S49.553,45,49,45z
	 M49,39H15c-0.553,0-1-0.447-1-1s0.447-1,1-1h34c0.553,0,1,0.447,1,1S49.553,39,49,39z M49,33H15c-0.553,0-1-0.447-1-1s0.447-1,1-1
	h34c0.553,0,1,0.447,1,1S49.553,33,49,33z M49,27H15c-0.553,0-1-0.447-1-1s0.447-1,1-1h34c0.553,0,1,0.447,1,1S49.553,27,49,27z
	 M49,21H15c-0.553,0-1-0.447-1-1s0.447-1,1-1h34c0.553,0,1,0.447,1,1S49.553,21,49,21z"/>
</svg>